<?xml version="1.0" standalone="no"?>
<!DOCTYPE svg PUBLIC "-//W3C//DTD SVG 20010904//EN"
 "http://www.w3.org/TR/2001/REC-SVG-20010904/DTD/svg10.dtd">
<svg version="1.0" xmlns="http://www.w3.org/2000/svg"
 width="1024.000000pt" height="1024.000000pt" viewBox="0 0 1024.000000 1024.000000"
 preserveAspectRatio="xMidYMid meet">

<g transform="translate(0.000000,1024.000000) scale(0.100000,-0.100000)"
fill="#000000" stroke="none">
<path d="M4960 7844 c-705 -99 -1296 -465 -1685 -1044 -243 -362 -367 -727
-395 -1165 -35 -554 124 -1090 453 -1524 92 -121 252 -288 361 -375 47 -38 86
-73 86 -77 0 -4 -80 -134 -178 -290 -98 -156 -209 -333 -247 -394 -37 -60
-100 -160 -139 -222 -107 -168 -111 -178 -97 -224 14 -46 43 -69 89 -69 63 0
55 -10 272 335 59 94 138 220 177 280 38 61 116 184 173 275 56 91 109 171
116 179 12 13 26 8 101 -31 315 -165 639 -242 1018 -241 307 1 542 41 848 145
49 16 90 28 92 26 2 -2 26 -55 53 -118 50 -115 135 -307 296 -670 48 -107 97
-205 108 -217 53 -56 168 -5 168 74 0 24 -250 600 -389 897 -28 60 -51 112
-51 117 0 4 42 31 93 60 580 325 1006 879 1152 1494 43 181 56 281 62 470 13
393 -57 728 -222 1070 -215 444 -570 804 -1010 1023 -204 101 -392 163 -635
207 -133 24 -525 30 -670 9z m625 -209 c383 -61 715 -215 1015 -473 243 -208
439 -485 558 -787 100 -254 136 -462 135 -775 0 -306 -57 -570 -182 -850 -157
-352 -416 -660 -761 -902 -277 -195 -686 -341 -1058 -379 -155 -16 -459 -6
-606 20 -203 37 -442 125 -626 232 -98 57 -276 197 -371 291 -267 267 -447
579 -539 931 -121 463 -79 995 111 1418 317 704 969 1187 1737 1285 135 17
449 11 587 -11z"/>
<path d="M5602 6643 c-60 -29 -62 -40 -62 -378 0 -168 -1 -305 -2 -306 -25 -9
-324 -14 -358 -7 -62 14 -121 -3 -156 -45 l-27 -32 8 -435 c8 -479 7 -474 71
-505 70 -33 150 2 179 79 15 39 17 83 14 369 l-4 326 135 3 c74 2 137 2 140 0
3 -2 8 -279 12 -615 4 -337 10 -667 14 -735 6 -121 6 -123 39 -157 29 -31 38
-35 83 -35 43 0 57 5 86 30 61 54 60 42 47 704 -6 331 -13 650 -16 709 -3 80
-1 109 8 112 6 2 90 5 185 7 l172 4 0 -302 0 -303 -37 16 c-113 47 -212 -53
-157 -158 18 -36 102 -79 205 -106 79 -20 129 -10 184 38 65 58 66 65 63 539
-3 479 0 460 -81 502 -38 19 -50 20 -292 13 l-252 -7 -6 182 c-4 101 -7 232
-7 293 0 124 -14 167 -64 198 -38 23 -80 24 -124 2z"/>
<path d="M4457 6610 c-15 -12 -34 -35 -43 -52 -17 -32 -16 -62 32 -908 8 -146
17 -384 20 -530 l6 -265 -70 -105 c-39 -58 -108 -148 -155 -201 -98 -111 -107
-125 -107 -173 0 -27 8 -44 35 -71 30 -30 42 -35 81 -35 25 0 58 7 74 15 54
28 263 274 340 401 67 111 70 167 45 725 -29 633 -62 1114 -78 1145 -24 47
-53 67 -104 71 -39 4 -53 1 -76 -17z"/>
<path d="M3993 5995 c-42 -18 -64 -54 -66 -107 -1 -24 2 -209 6 -413 10 -399
11 -408 65 -437 33 -17 96 -14 127 6 55 36 60 56 63 246 2 96 -1 277 -6 402
-11 251 -17 274 -78 303 -39 18 -69 19 -111 0z"/>
</g>
</svg>
